HIERARCHY
ROOT Hips
{
	OFFSET -0.001795 -0.223333 0.028219
	CHANNELS 6 Xposition Yposition Zposition Zrotation Yrotation Xrotation 
	JOINT LeftUpLeg
	{
		OFFSET 0.069520 -0.091406 -0.006815
		CHANNELS 3 Zrotation Yrotation Xrotation
		JOINT LeftLeg
		{
			OFFSET 0.034277 -0.375199 -0.004496
			CHANNELS 3 Zrotation Yrotation Xrotation
			JOINT LeftFoot
			{
				OFFSET -0.013596 -0.397961 -0.043693
				CHANNELS 3 Zrotation Yrotation Xrotation
				JOINT LeftToe
				{
					OFFSET 0.026358 -0.055791 0.119288
					CHANNELS 3 Zrotation Yrotation Xrotation
					End Site
					{
						OFFSET 0.000000 0.000000 0.000000
					}
				}
			}
		}
	}
	JOINT RightUpLeg
	{
		OFFSET -0.067670 -0.090522 -0.004320
		CHANNELS 3 Zrotation Yrotation Xrotation
		JOINT RightLeg
		{
			OFFSET -0.038290 -0.382569 -0.008850
			CHANNELS 3 Zrotation Yrotation Xrotation
			JOINT RightFoot
			{
				OFFSET 0.015774 -0.398415 -0.042312
				CHANNELS 3 Zrotation Yrotation Xrotation
				JOINT RightToe
				{
					OFFSET -0.025372 -0.048144 0.123348
					CHANNELS 3 Zrotation Yrotation Xrotation
					End Site
					{
						OFFSET 0.000000 0.000000 0.000000
					}
				}
			}
		}
	}
	JOINT Spine
	{
		OFFSET -0.002533 0.108963 -0.026696
		CHANNELS 3 Zrotation Yrotation Xrotation
		JOINT Spine1
		{
			OFFSET 0.005487 0.135180 0.001092
			CHANNELS 3 Zrotation Yrotation Xrotation
			JOINT Spine2
			{
				OFFSET 0.001457 0.052922 0.025425
				CHANNELS 3 Zrotation Yrotation Xrotation
				JOINT Neck
				{
					OFFSET -0.002778 0.213870 -0.042857
					CHANNELS 3 Zrotation Yrotation Xrotation
					JOINT Head
					{
						OFFSET 0.005152 0.064970 0.051349
						CHANNELS 3 Zrotation Yrotation Xrotation
						End Site
						{
							OFFSET 0.000000 0.000000 0.000000
						}
					}
				}
				JOINT LeftShoulder
				{
					OFFSET 0.078845 0.121749 -0.034090
					CHANNELS 3 Zrotation Yrotation Xrotation
					JOINT LeftArm
					{
						OFFSET 0.090977 0.030469 -0.008868
						CHANNELS 3 Zrotation Yrotation Xrotation
						JOINT LeftForeArm
						{
							OFFSET 0.259612 -0.012772 -0.027456
							CHANNELS 3 Zrotation Yrotation Xrotation
							JOINT LeftHand
							{
								OFFSET 0.249234 0.008986 -0.001171
								CHANNELS 3 Zrotation Yrotation Xrotation
								End Site
								{
									OFFSET 0.000000 0.000000 0.000000
								}
							}
						}
					}
				}
				JOINT RightShoulder
				{
					OFFSET -0.081759 0.118833 -0.038615
					CHANNELS 3 Zrotation Yrotation Xrotation
					JOINT RightArm
					{
						OFFSET -0.096012 0.032551 -0.009143
						CHANNELS 3 Zrotation Yrotation Xrotation
						JOINT RightForeArm
						{
							OFFSET -0.253742 -0.013329 -0.021401
							CHANNELS 3 Zrotation Yrotation Xrotation
							JOINT RightHand
							{
								OFFSET -0.255298 0.007772 -0.005559
								CHANNELS 3 Zrotation Yrotation Xrotation
								End Site
								{
									OFFSET 0.000000 0.000000 0.000000
								}
							}
						}
					}
				}
			}
		}
	}
}
MOTION
Frames: 13
Frame Time: 0.050000
-0.613236 0.924214 1.375374 -0.092318 -24.686329 -4.617609 -3.257289 -1.648067 -19.886937 3.908408 -0.356063 -3.326403 1.455364 4.210547 13.974730 0.000000 0.000000 0.000000 9.401959 -2.228628 18.484717 -4.902090 0.512943 1.606529 -2.200916 -2.533970 -3.103615 0.000000 0.000000 0.000000 -2.821528 -0.014846 5.129944 -1.875467 0.662636 -3.353220 3.568558 7.405079 10.583826 1.276477 0.189302 -26.102393 0.000000 0.000000 0.000000 -20.493565 1.430809 -0.820284 -53.387863 -4.976820 -5.000808 -9.037336 -25.718502 3.508274 0.000000 0.000000 0.000000 19.432287 10.597500 2.011163 59.239360 21.758099 4.974028 2.929730 26.154644 1.178110 0.000000 0.000000 0.000000 
-0.622254 0.922775 1.411047 -0.606624 -25.209982 -3.757777 -2.809864 -1.513089 -18.899643 3.571917 -0.296495 -3.721620 1.896994 4.942303 15.186550 0.000000 0.000000 0.000000 9.343059 -2.282584 19.656914 -5.023184 0.610755 2.536345 -1.863037 -2.578565 -1.998861 0.000000 0.000000 0.000000 -2.439013 -0.032297 4.808393 -2.061869 0.721428 -3.721518 3.891107 8.127040 10.762533 1.310132 0.208540 -25.866266 0.000000 0.000000 0.000000 -21.253478 1.437026 -0.925520 -53.514527 -4.442159 -5.281764 -7.849760 -25.063971 3.131793 0.000000 0.000000 0.000000 19.457669 10.827977 2.256178 58.615033 21.801788 4.915171 3.616463 26.186277 1.353147 0.000000 0.000000 0.000000 
-0.630767 0.924490 1.450676 -0.419050 -26.163014 -3.002173 -3.148990 -1.523193 -18.126471 3.749163 -0.363020 -3.086087 2.628346 6.088185 17.721463 0.000000 0.000000 0.000000 8.170439 -2.052652 20.361266 -5.417851 0.815617 4.133931 -0.799633 -1.712922 0.012033 0.000000 0.000000 0.000000 -2.319968 -0.027612 3.536463 -2.688357 1.015628 -3.402476 4.191155 8.696478 10.361114 1.067759 0.338762 -25.812222 0.000000 0.000000 0.000000 -21.608039 2.846873 -1.789818 -53.193404 -3.569289 -5.576288 -8.070143 -25.300786 3.226376 0.000000 0.000000 0.000000 19.200318 10.320683 2.000166 58.796703 20.582272 4.344945 4.589999 27.018793 1.599165 0.000000 0.000000 0.000000 
-0.638697 0.929880 1.493199 -0.129018 -26.887489 -2.228792 -3.849626 -1.580052 -16.882365 3.522711 -0.339656 -3.114830 2.680880 6.210782 20.061937 0.000000 0.000000 0.000000 6.693057 -1.742075 21.220231 -5.337124 0.994692 5.833628 0.948674 -1.003692 3.952532 0.000000 0.000000 0.000000 -2.306790 -0.012530 2.580322 -2.888087 1.062500 -3.948011 4.280412 9.038686 10.582299 1.387992 0.078235 -24.692013 0.000000 0.000000 0.000000 -21.971422 3.122714 -1.914188 -52.915114 -3.115022 -5.782600 -8.133743 -25.426321 3.276876 0.000000 0.000000 0.000000 19.115773 10.671894 2.157455 58.395183 18.495931 3.240079 5.309445 27.845763 1.806219 0.000000 0.000000 0.000000 
-0.646742 0.936015 1.537790 0.363815 -27.332057 -1.802744 -4.588834 -1.603871 -15.191346 2.554790 -0.231206 -3.098622 3.312934 7.083713 20.767510 0.000000 0.000000 0.000000 5.383934 -1.432151 21.436865 -5.006957 1.249569 8.331059 2.562600 -0.461087 7.567278 0.000000 0.000000 0.000000 -2.200525 0.001500 1.599765 -3.066632 1.185026 -3.337656 4.016378 9.387615 9.802630 1.573511 -0.026637 -24.010320 0.000000 0.000000 0.000000 -21.798016 2.937953 -1.879403 -52.579410 -3.218397 -5.628898 -8.213219 -25.700944 3.314690 0.000000 0.000000 0.000000 18.857213 9.762853 1.750240 58.538484 16.396159 2.221620 5.686172 28.038720 1.908608 0.000000 0.000000 0.000000 
-0.655112 0.941317 1.583702 0.887446 -27.387599 -1.735613 -5.375477 -1.560251 -12.835157 1.577345 -0.082260 -3.737938 3.808449 7.782186 20.058096 0.000000 0.000000 0.000000 3.534654 -0.998509 22.095509 -4.035489 1.442920 11.077227 4.635273 -0.579550 13.428622 0.000000 0.000000 0.000000 -2.290203 0.027870 0.489335 -3.073958 1.173963 -3.543460 4.518243 8.661039 10.999289 0.391221 0.527467 -25.096818 0.000000 0.000000 0.000000 -22.657436 1.931326 -0.987046 -52.197190 -4.227843 -5.407937 -6.922974 -25.212006 3.010427 0.000000 0.000000 0.000000 18.674791 9.313147 1.305521 58.825407 15.141908 1.508624 5.181772 27.372672 1.705858 0.000000 0.000000 0.000000 
-0.663711 0.945370 1.630199 1.013836 -27.210504 -2.499055 -6.350648 -1.384584 -9.575152 1.757729 -0.099062 -3.838745 3.756519 7.696986 18.649953 0.000000 0.000000 0.000000 1.294079 -0.478634 21.290275 -1.569508 1.676043 16.406680 5.411220 -2.485834 19.173821 0.000000 0.000000 0.000000 -2.438924 0.035168 0.053924 -2.712164 1.027797 -3.329796 4.727777 7.838132 11.251836 0.417217 0.350562 -24.146441 0.000000 0.000000 0.000000 -22.638707 1.849491 -0.678389 -51.246045 -5.040584 -5.108734 -7.773747 -25.913650 3.349779 0.000000 0.000000 0.000000 18.070291 8.913365 0.933460 59.014953 12.677071 0.227733 6.371979 27.752423 1.933866 0.000000 0.000000 0.000000 
-0.671800 0.946406 1.675091 1.356012 -27.530793 -3.126342 -7.509761 -1.182841 -6.958473 1.730237 -0.162038 -2.527027 4.218971 8.386491 15.607072 0.000000 0.000000 0.000000 -1.991049 0.211723 18.464322 2.791310 1.782207 24.661607 5.327980 -5.065974 25.001254 0.000000 0.000000 0.000000 -3.061424 0.048118 -0.106410 -2.005964 0.718941 -3.178372 5.123690 7.094275 11.638166 0.312509 0.290331 -24.451950 0.000000 0.000000 0.000000 -23.470080 0.818282 0.281902 -50.095561 -5.822122 -4.914323 -8.418323 -26.772082 3.676434 0.000000 0.000000 0.000000 17.114455 8.500402 0.602859 59.932817 10.588045 -0.954085 7.417528 27.467191 2.085373 0.000000 0.000000 0.000000 
-0.679099 0.945951 1.716121 1.408567 -27.231003 -3.877932 -8.611754 -0.754827 -3.559036 1.931269 -0.192827 -2.432688 3.757969 7.762490 13.203247 0.000000 0.000000 0.000000 -4.202101 0.465880 14.199642 6.559388 2.011910 34.227566 2.452695 -9.064641 26.676392 0.000000 0.000000 0.000000 -2.846821 0.025981 0.324914 -1.611928 0.544397 -3.143071 4.707296 5.015073 11.660803 0.121714 0.152786 -24.560156 0.000000 0.000000 0.000000 -24.323807 0.326364 1.204871 -48.537979 -7.172277 -4.546656 -9.021827 -27.672338 4.043371 0.000000 0.000000 0.000000 17.387564 8.578633 0.133151 59.559396 8.848481 -1.785107 7.360326 28.172159 1.986893 0.000000 0.000000 0.000000 
-0.685703 0.945464 1.752545 1.386893 -27.439408 -4.742149 -9.367800 -0.247490 -0.454016 2.426246 -0.290903 -1.786386 3.709152 7.794662 10.130128 0.000000 0.000000 0.000000 -5.874322 0.601271 9.911286 9.215865 2.110629 41.012124 -0.528817 -11.828854 23.368969 0.000000 0.000000 0.000000 -2.684111 0.005995 0.695365 -1.098381 0.381267 -1.997380 4.123911 3.035179 10.860388 0.194980 -0.185469 -22.742640 0.000000 0.000000 0.000000 -24.280483 -0.023113 1.996587 -48.324768 -8.246966 -4.256088 -8.479422 -28.287920 4.095121 0.000000 0.000000 0.000000 17.867266 9.325729 -0.089663 58.941530 7.054784 -2.454670 7.648599 29.023100 1.946265 0.000000 0.000000 0.000000 
-0.691828 0.946237 1.784580 1.281008 -27.439826 -5.373742 -10.290869 0.345527 2.497951 2.951758 -0.368476 -1.649369 3.476486 7.472780 9.360287 0.000000 0.000000 0.000000 -5.983314 0.480064 5.166482 10.376181 2.355930 45.152282 -3.763856 -15.040864 18.298798 0.000000 0.000000 0.000000 -2.337741 -0.011443 0.855839 -0.593838 0.194046 -1.302166 3.335250 1.400799 10.998350 0.130235 -0.333157 -22.779684 0.000000 0.000000 0.000000 -24.286804 -0.764260 2.947022 -48.903933 -10.473197 -3.572042 -6.726165 -28.301132 3.713409 0.000000 0.000000 0.000000 18.288600 9.640389 -0.413658 58.683744 6.174171 -2.773922 7.878493 30.058386 1.928278 0.000000 0.000000 0.000000 
-0.698080 0.947046 1.812413 1.053495 -26.820354 -6.136955 -10.581813 0.968671 5.295027 3.399723 -0.440104 -1.381028 3.411847 7.507855 8.427228 0.000000 0.000000 0.000000 -5.253289 0.395654 0.365584 11.173378 2.252517 46.888612 -6.561316 -18.084630 12.233128 0.000000 0.000000 0.000000 -1.958547 -0.042050 1.663285 -0.036281 -0.071909 -1.400318 2.595170 -0.365131 11.395688 0.203406 -0.594119 -21.606222 0.000000 0.000000 0.000000 -23.532859 -1.397765 3.700351 -50.000712 -12.017255 -3.047569 -5.398361 -29.275524 3.606525 0.000000 0.000000 0.000000 18.729441 9.236964 -1.076395 58.021720 4.737156 -3.353179 9.134439 32.136711 2.223597 0.000000 0.000000 0.000000 
-0.704793 0.947628 1.837348 0.650483 -25.772750 -6.560004 -10.467135 1.598968 8.003925 3.750396 -0.429112 -2.235589 3.034502 6.935574 7.925240 0.000000 0.000000 0.000000 -4.040843 0.483128 -4.112924 11.132452 1.954262 45.677507 -8.103170 -20.024156 7.864496 0.000000 0.000000 0.000000 -1.814664 -0.066631 2.678391 0.584406 -0.356358 -1.397039 1.850459 -2.254064 11.661239 -0.220306 -0.506649 -21.879690 0.000000 0.000000 0.000000 -23.218313 -1.646573 4.161381 -50.558497 -14.456332 -2.087859 -3.965682 -29.651167 3.345507 0.000000 0.000000 0.000000 19.232911 9.738464 -1.262557 57.354262 3.758084 -3.652250 9.270056 32.515368 2.181609 0.000000 0.000000 0.000000 
